<?xml version="1.0" standalone="no"?>
<!DOCTYPE svg PUBLIC "-//W3C//DTD SVG 20010904//EN"
 "http://www.w3.org/TR/2001/REC-SVG-20010904/DTD/svg10.dtd">
<svg version="1.0" xmlns="http://www.w3.org/2000/svg"
 width="172.000000pt" height="197.000000pt" viewBox="0 0 172.000000 197.000000"
 preserveAspectRatio="xMidYMid meet">

<g transform="translate(0.000000,197.000000) scale(0.100000,-0.100000)"
fill="#000000" stroke="none">
<path d="M943 1308 c-11 -14 -13 -24 -48 -447 -14 -162 -27 -297 -30 -299 -9
-10 -13 28 -34 323 -12 165 -25 303 -30 308 -5 5 -14 7 -19 3 -11 -6 -12 -18
-47 -320 -14 -120 -29 -224 -32 -230 -4 -6 -18 85 -30 203 -12 118 -25 216
-27 219 -3 2 -11 2 -19 -1 -9 -3 -18 -50 -30 -152 -10 -81 -21 -154 -26 -162
-5 -10 -14 29 -24 108 -10 67 -19 124 -22 127 -15 15 -33 -15 -49 -82 -10 -42
-21 -76 -26 -76 -5 0 -15 19 -22 42 -8 23 -19 43 -26 46 -13 4 -55 -74 -49
-91 2 -7 12 5 22 26 11 20 22 37 25 37 4 0 13 -18 20 -39 7 -22 19 -42 27 -45
16 -6 24 13 50 110 l18 67 20 -139 c15 -107 23 -139 35 -139 16 0 21 22 40
200 7 66 16 126 20 133 3 7 14 -65 24 -160 24 -243 27 -258 42 -258 7 0 15 4
18 9 5 7 49 342 69 516 7 61 15 -5 38 -299 17 -224 26 -299 36 -303 8 -3 17
-3 20 1 6 6 47 430 59 619 4 59 10 107 14 107 11 0 17 -71 36 -410 12 -213 20
-299 30 -309 11 -13 14 -12 20 2 3 10 19 147 34 305 15 158 30 280 33 272 3
-8 10 -118 15 -243 5 -125 12 -230 15 -234 4 -3 12 -3 20 0 9 3 20 63 37 206
12 110 26 198 30 196 4 -3 11 -64 15 -137 9 -170 16 -213 35 -213 11 0 20 30
36 115 30 169 26 168 65 18 5 -21 14 -38 19 -38 5 0 21 21 34 48 27 52 22 53
49 -18 4 -10 6 -8 6 7 1 33 -17 73 -32 73 -8 0 -24 -21 -35 -47 l-20 -47 -12
44 c-6 25 -16 62 -21 82 -11 41 -27 57 -39 38 -4 -7 -16 -61 -26 -121 -10 -60
-21 -109 -26 -109 -4 0 -8 10 -8 23 0 35 -20 250 -25 275 -3 12 -12 22 -20 22
-8 0 -15 -1 -15 -2 -2 -31 -50 -391 -52 -394 -3 -2 -10 103 -16 233 -12 225
-19 270 -41 248 -6 -6 -22 -138 -36 -295 -14 -157 -27 -289 -29 -295 -2 -5 -6
33 -10 85 -3 52 -11 151 -16 220 -5 69 -15 195 -20 280 -11 154 -18 182 -37
158z"/>
</g>
</svg>
