<?xml version="1.0" standalone="no"?>
<!DOCTYPE svg PUBLIC "-//W3C//DTD SVG 20010904//EN"
 "http://www.w3.org/TR/2001/REC-SVG-20010904/DTD/svg10.dtd">
<svg version="1.0" xmlns="http://www.w3.org/2000/svg"
 width="707.000000pt" height="197.000000pt" viewBox="0 0 707.000000 197.000000"
 preserveAspectRatio="xMidYMid meet">

<g transform="translate(0.000000,197.000000) scale(0.100000,-0.100000)"
fill="#000000" stroke="none">
<path d="M1766 1312 c-3 -5 -8 -47 -11 -93 -8 -125 -14 -666 -8 -689 6 -21 28
-27 38 -10 4 6 8 183 11 394 3 320 1 386 -10 395 -8 7 -17 8 -20 3z"/>
<path d="M935 1298 c-2 -7 -15 -152 -30 -323 -33 -407 -35 -426 -46 -419 -5 3
-9 0 -9 -5 0 -6 6 -11 14 -11 10 0 17 15 21 43 9 70 55 613 55 656 0 46 16 56
23 14 3 -20 4 -15 6 15 1 32 -3 42 -14 42 -9 0 -17 -6 -20 -12z"/>
<path d="M976 1095 c7 -221 27 -509 36 -534 6 -15 12 -21 18 -15 6 6 22 141
37 302 27 282 42 359 44 230 1 -35 5 -124 9 -198 7 -122 8 -115 4 64 -3 190
-10 235 -33 211 -5 -6 -19 -116 -31 -245 -36 -388 -34 -378 -48 -220 -7 74
-19 225 -27 335 -11 152 -13 169 -9 70z"/>
<path d="M775 1188 c-3 -7 -18 -130 -35 -272 -16 -143 -33 -263 -38 -268 -4
-4 -16 70 -26 164 -24 241 -27 258 -41 258 -17 0 -25 -23 -24 -63 1 -29 2 -27
12 13 9 42 12 29 34 -170 23 -207 32 -245 52 -224 5 5 24 129 43 276 18 148
35 268 38 268 3 0 11 -69 18 -152 24 -315 37 -452 40 -425 4 33 -37 588 -44
599 -8 12 -24 9 -29 -4z"/>
<path d="M4300 1152 c-44 -22 -80 -75 -80 -119 0 -61 25 -92 103 -128 92 -41
112 -63 104 -111 -3 -20 -11 -42 -18 -50 -19 -23 -100 -17 -163 12 -62 28 -90
22 -84 -20 4 -25 84 -72 138 -81 48 -8 130 11 158 38 95 88 57 213 -81 264
-65 24 -94 55 -81 90 5 14 21 35 36 46 27 20 28 20 67 2 45 -20 71 -15 71 14
0 53 -100 79 -170 43z"/>
<path d="M6064 1148 c-4 -7 -7 -43 -6 -81 4 -98 1 -103 -56 -103 -86 0 -150
-55 -159 -136 -6 -55 16 -107 55 -130 28 -17 185 -29 198 -15 11 10 33 241 34
345 0 51 -5 102 -10 113 -12 21 -45 25 -56 7z m-29 -262 c15 -11 17 -21 12
-61 -9 -59 -21 -75 -59 -75 -63 0 -92 45 -63 100 25 48 72 64 110 36z"/>
<path d="M2986 1124 c-4 -10 -14 -81 -22 -158 -17 -149 -14 -256 6 -281 30
-36 96 -3 72 36 -15 23 -15 179 -1 274 6 39 12 86 13 105 1 32 -1 35 -30 38
-22 2 -33 -2 -38 -14z"/>
<path d="M2179 1092 c-46 -24 -59 -38 -86 -90 -60 -118 -54 -223 17 -294 35
-35 42 -38 96 -38 83 0 125 14 167 57 42 41 48 77 16 93 -17 10 -25 6 -59 -31
-36 -39 -43 -43 -97 -47 -52 -4 -60 -1 -83 22 -53 58 -19 212 59 263 25 17 49
23 90 23 73 0 99 21 65 54 -27 27 -122 21 -185 -12z"/>
<path d="M1201 1048 c-4 -13 -16 -90 -25 -173 -9 -82 -20 -163 -24 -180 l-6
-30 -7 35 -6 35 -2 -42 c-1 -31 3 -43 13 -43 20 0 22 9 47 223 12 103 25 184
29 180 4 -4 12 -82 19 -172 6 -91 15 -169 20 -174 19 -19 29 5 46 115 26 162
28 165 53 73 12 -43 26 -83 31 -88 6 -6 19 9 34 39 28 54 23 55 50 -16 11 -30
8 16 -4 49 -15 44 -33 39 -54 -15 -21 -55 -27 -49 -51 48 -29 119 -44 105 -70
-59 -10 -62 -21 -110 -25 -106 -4 5 -13 69 -19 143 -13 156 -17 180 -30 180
-6 0 -14 -10 -19 -22z"/>
<path d="M2658 981 c-74 -26 -117 -79 -133 -163 -23 -123 136 -188 204 -84
l18 27 16 -25 c9 -13 26 -27 37 -31 42 -13 70 44 31 64 -22 12 -35 44 -56 135
-23 103 -30 108 -117 77z m46 -77 c11 -29 6 -67 -15 -111 -25 -51 -58 -58 -85
-18 -15 24 -15 28 1 70 24 64 83 99 99 59z"/>
<path d="M6313 985 c-36 -15 -53 -42 -53 -82 0 -44 23 -68 88 -92 63 -23 78
-40 62 -72 -15 -27 -56 -34 -109 -19 -65 18 -82 17 -95 -3 -9 -15 -7 -21 9
-33 31 -23 96 -36 154 -32 45 4 59 10 82 36 42 46 46 76 18 117 -21 31 -97 75
-128 75 -6 0 -11 12 -11 26 0 26 1 26 68 23 66 -4 67 -4 70 22 3 22 -2 29 -29
38 -42 15 -87 13 -126 -4z"/>
<path d="M491 953 c-5 -21 -15 -57 -21 -80 -15 -58 -25 -60 -40 -8 -17 59 -35
64 -60 15 -11 -22 -20 -45 -20 -52 1 -7 10 4 21 25 11 20 23 37 28 37 4 0 14
-18 21 -40 22 -67 42 -53 71 47 l25 87 20 -139 c15 -108 22 -140 34 -140 17 0
25 44 33 181 l6 89 -13 -97 c-7 -53 -17 -109 -21 -125 -9 -32 -9 -32 -35 150
-13 96 -32 115 -49 50z"/>
<path d="M3224 979 c-3 -6 -8 -67 -10 -135 -5 -136 3 -167 39 -162 20 3 22 10
27 89 6 97 25 139 65 139 38 0 50 -33 50 -145 1 -98 1 -100 25 -103 35 -5 50
22 50 92 0 86 25 126 78 126 49 0 72 -24 72 -76 0 -60 18 -114 38 -114 41 1
44 13 33 103 -10 87 -28 130 -62 147 -27 15 -116 12 -149 -5 -27 -14 -30 -13
-63 20 -37 37 -60 42 -102 23 -19 -9 -28 -9 -37 0 -15 15 -45 15 -54 1z"/>
<path d="M5246 974 c-3 -9 -6 -24 -6 -34 0 -11 -5 -43 -11 -72 -20 -90 -100
-148 -133 -96 -7 12 -7 41 2 100 10 67 9 85 -1 96 -30 29 -48 1 -72 -112 -9
-44 5 -115 29 -143 17 -20 31 -25 69 -25 27 0 59 7 72 16 22 15 24 14 30 -4 4
-14 15 -20 36 -20 l29 0 0 73 c0 39 4 100 9 134 5 34 7 71 4 83 -6 24 -48 28
-57 4z"/>
<path d="M5456 954 c-3 -8 -4 -25 -1 -37 3 -12 1 -61 -4 -108 -11 -96 -4 -142
23 -147 34 -7 46 17 46 95 0 92 18 133 59 133 45 0 59 -25 65 -120 2 -47 5
-86 5 -87 1 -2 12 -3 26 -3 40 0 48 37 31 137 -8 47 -22 93 -32 104 -23 26
-79 42 -119 35 -19 -4 -36 -2 -40 4 -10 16 -52 12 -59 -6z"/>
<path d="M4680 912 c-35 -34 -40 -46 -40 -83 1 -71 32 -126 84 -150 39 -17 51
-18 91 -8 56 14 79 50 79 124 0 90 -45 143 -129 153 -42 4 -47 2 -85 -36z
m133 -74 c22 -45 14 -85 -20 -101 -53 -24 -105 63 -73 123 9 16 19 20 43 18
26 -2 36 -10 50 -40z"/>
</g>
</svg>
